<svg xmlns="http://www.w3.org/2000/svg" width="96" height="96" viewBox="0 0 96 96" role="img" aria-labelledby="title">
  <title id="title">Encrypted transmission</title>
  <rect width="96" height="96" rx="24" fill="#F0FBF7"/>
  <path d="M48 17L74 27V45C74 61 63.7 75.2 48 80C32.3 75.2 22 61 22 45V27L48 17Z" fill="#14B881"/>
  <path d="M48 24L66 31V45C66 56.2 59.3 66.3 48 70.6C36.7 66.3 30 56.2 30 45V31L48 24Z" fill="#FFFFFF"/>
  <rect x="37" y="43" width="22" height="17" rx="4" fill="#14B881"/>
  <path d="M41 43V38C41 34.1 44.1 31 48 31C51.9 31 55 34.1 55 38V43" fill="none" stroke="#14B881" stroke-width="5" stroke-linecap="round"/>
  <circle cx="48" cy="51" r="2.5" fill="#FFFFFF"/>
  <path d="M48 53V57" stroke="#FFFFFF" stroke-width="2.5" stroke-linecap="round"/>
</svg>
